<svg id="Logo" xmlns="http://www.w3.org/2000/svg" viewBox="0 0 750.93 867.69"><defs><style>.cls-1{fill:#8ab8ff;stroke:#f2f2f2;stroke-miterlimit:10;stroke-width:9px;}</style></defs><g id="Letters"><g id="C"><path class="cls-1" d="M566.82,941.34C322.5,941.34,141,752.76,141,514.37V512C141,276,318.94,82.66,573.94,82.66c127,0,212.58,34.31,281.53,87.77a57.91,57.91,0,0,1,8.21,83.68L822,302.2a57.82,57.82,0,0,1-77.86,8.85c-51.48-37.85-105.89-60-171.36-60C432.8,251.07,332,367.3,332,509.63V512c0,142.32,98.44,260.93,240.76,260.93,75.67,0,128-24.14,179.11-64a58,58,0,0,1,76.85,4.85l37.51,37.89a58,58,0,0,1-3,84.32C788.19,901.9,700.1,941.34,566.82,941.34Z" transform="translate(-136.53 -78.16)"/></g><g id="S"><path class="cls-1" d="M488,441.39q4.31,10.83,15.66,19.75T535,477.36q20,7.31,51.3,13.79,63.18,14.06,93.15,38.94t30,68.68q0,24.35-9.61,44.36a100.27,100.27,0,0,1-26.46,34.07q-16.85,14.06-40.61,21.63a170.28,170.28,0,0,1-51.84,7.57q-45.36,0-82.89-14.64a223.45,223.45,0,0,1-55.57-31.92,20,20,0,0,1-3-28.72l.56-.67a20.05,20.05,0,0,1,27.79-2.69,206.56,206.56,0,0,0,45.09,27.61q30.23,13.25,69.66,13.23,38.33,0,61.29-17.85t22.95-47a63.11,63.11,0,0,0-4.33-24.07q-4.34-10.53-15.16-19.19t-30-15.69q-19.21-7-49-13.52-32.47-7-56.56-16.23t-39.8-22.17a81.45,81.45,0,0,1-23.27-30.28q-7.58-17.31-7.57-41.11a94,94,0,0,1,9.18-41.64,96.51,96.51,0,0,1,25.92-32.72,126,126,0,0,1,39.42-21.63q22.68-7.84,49.68-7.85,41.57,0,72.63,11.45A209.44,209.44,0,0,1,680.82,351a20,20,0,0,1,5,28.78l-.57.76A20,20,0,0,1,658.08,385a170.71,170.71,0,0,0-38-19.92,162.27,162.27,0,0,0-55.89-9.72A106.33,106.33,0,0,0,531,360.27a84.09,84.09,0,0,0-25.38,13,55.94,55.94,0,0,0-16.2,19.47,53.75,53.75,0,0,0-5.67,24.33A64.89,64.89,0,0,0,488,441.39Z" transform="translate(-136.53 -78.16)"/></g></g></svg>